<svg width="10" height="22" viewBox="0 0 10 22" fill="none" xmlns="http://www.w3.org/2000/svg">
<path d="M5.3505 21.081V2.25086L8.65972 5.56008C8.76763 5.66799 8.90701 5.72194 9.05089 5.72194C9.19477 5.72194 9.33415 5.66799 9.44206 5.56008C9.65788 5.34426 9.65788 4.99805 9.44206 4.78224L5.19313 0.533309C4.98631 0.326483 4.62211 0.326483 4.41529 0.533309L0.161864 4.78224C-0.0539546 4.99805 -0.0539546 5.34426 0.161864 5.56008C0.377682 5.7759 0.723891 5.7759 0.93971 5.56008L4.24893 2.25086V21.081C4.24893 21.3868 4.49622 21.6341 4.80196 21.6341C5.10321 21.6296 5.3505 21.3823 5.3505 21.081Z" fill="black"/>
</svg>
