<svg width="10" height="22" viewBox="0 0 10 22" fill="none" xmlns="http://www.w3.org/2000/svg">
<path d="M4.80681 21.4672C4.91472 21.5751 5.0541 21.6291 5.19798 21.6291C5.34186 21.6291 5.48124 21.5751 5.58915 21.4672L9.83808 17.2183C10.0539 17.0024 10.0539 16.6562 9.83808 16.4404C9.62227 16.2246 9.27606 16.2246 9.06024 16.4404L5.75102 19.7496V0.919475C5.75102 0.613732 5.50373 0.36644 5.19798 0.36644C4.89224 0.36644 4.64495 0.613732 4.64495 0.919475V19.7496L1.34022 16.4404C1.12441 16.2246 0.778195 16.2246 0.562377 16.4404C0.346558 16.6562 0.346558 17.0024 0.562377 17.2183L4.80681 21.4672Z" fill="black"/>
</svg>
